<svg viewBox="0 0 15 27" width="14" xmlns="http://www.w3.org/2000/svg">
  <path d="M11.5383445 5.17902813h2.8845861c.3184583 0 .5769172-.25780051.5769172-.57544757V.72679028c0-.30153453-.2324976-.55242967-.5336484-.57372123C13.5483241.08804348 11.7552654 0 10.4658554 0 6.92300669 0 4.61533779 2.11764706 4.61533779 5.96624041V9.7826087H.57691722C.25845892 9.7826087 0 10.0404092 0 10.3580563v4.028133c0 .317647.25845892.5754475.57691722.5754475H4.6153378v10.9335039c0 .317647.25845892.5754475.57691723.5754475h4.03842057c.31845831 0 .57691722-.2578005.57691722-.5754475V14.9616368H13.974089c.2942278 0 .5411484-.2203964.5734557-.5121483l.4488416-4.028133c.0380766-.340665-.229613-.6387468-.5734557-.6387468H9.80759281V6.90537084c0-.95351662.77479979-1.72634271 1.73075169-1.72634271z" fill="#A59D96"/>
</svg>