<svg viewBox="0 0 30 30" width="26" xmlns="http://www.w3.org/2000/svg">
  <path d="M8.82102273 0C3.97904864 0 0 3.97372227 0 8.82102273V21.1789773C0 26.0209514 3.97372227 30 8.82102273 30H21.1789773C26.0209514 30 30 26.0262791 30 21.1789773V8.82102273C30 3.97904864 26.0262791 0 21.1789773 0H8.82102273zm0 2.72727273H21.1789773c3.3718036 0 6.09375 2.72194636 6.09375 6.09375V21.1789773c0 3.3718036-2.7219464 6.09375-6.09375 6.09375H8.82102273c-3.37180364 0-6.09375-2.7219464-6.09375-6.09375V8.82102273c0-3.37180364 2.72194636-6.09375 6.09375-6.09375zM23.0539773 5.71022727c-.6871446 0-1.2357955.54865091-1.2357955 1.23579546 0 .68714454.5486509 1.23579545 1.2357955 1.23579545.6871445 0 1.2357954-.54865091 1.2357954-1.23579545 0-.68714455-.5486509-1.23579546-1.2357954-1.23579546zM15 6.81818182c-4.501065 0-8.18181818 3.68075318-8.18181818 8.18181818 0 4.501065 3.68075318 8.1818182 8.18181818 8.1818182 4.501065 0 8.1818182-3.6807532 8.1818182-8.1818182 0-4.501065-3.6807532-8.18181818-8.1818182-8.18181818zm0 2.72727273c3.0308945 0 5.4545455 2.42365095 5.4545455 5.45454545 0 3.0308945-2.423651 5.4545455-5.4545455 5.4545455S9.54545455 18.0308945 9.54545455 15 11.9691055 9.54545455 15 9.54545455z" fill="#A49073" />
</svg>